<?xml version="1.0" encoding="UTF-8" standalone="no"?>
<!-- Created with Inkscape (http://www.inkscape.org/) -->

<svg
   xmlns:dc="http://purl.org/dc/elements/1.1/"
   xmlns:cc="http://creativecommons.org/ns#"
   xmlns:rdf="http://www.w3.org/1999/02/22-rdf-syntax-ns#"
   xmlns:svg="http://www.w3.org/2000/svg"
   xmlns="http://www.w3.org/2000/svg"
   xmlns:sodipodi="http://sodipodi.sourceforge.net/DTD/sodipodi-0.dtd"
   xmlns:inkscape="http://www.inkscape.org/namespaces/inkscape"
   width="210mm"
   height="297mm"
   viewBox="0 0 210 297"
   version="1.1"
   id="svg8"
   inkscape:version="0.92.4 (5da689c313, 2019-01-14)"
   sodipodi:docname="Quail.svg">
  <defs
     id="defs2" />
  <sodipodi:namedview
     id="base"
     pagecolor="#ffffff"
     bordercolor="#666666"
     borderopacity="1.0"
     inkscape:pageopacity="0.0"
     inkscape:pageshadow="2"
     inkscape:zoom="0.5"
     inkscape:cx="148.74574"
     inkscape:cy="308.95678"
     inkscape:document-units="mm"
     inkscape:current-layer="layer1"
     showgrid="false"
     showguides="false"
     inkscape:window-width="1920"
     inkscape:window-height="1001"
     inkscape:window-x="-9"
     inkscape:window-y="-9"
     inkscape:window-maximized="1">
    <sodipodi:guide
       position="147.56618,218.37926"
       orientation="-0.70710678,0.70710678"
       id="guide928"
       inkscape:locked="false" />
  </sodipodi:namedview>
  <metadata
     id="metadata5">
    <rdf:RDF>
      <cc:Work
         rdf:about="">
        <dc:format>image/svg+xml</dc:format>
        <dc:type
           rdf:resource="http://purl.org/dc/dcmitype/StillImage" />
        <dc:title />
      </cc:Work>
    </rdf:RDF>
  </metadata>
  <g
     inkscape:label="Layer 1"
     inkscape:groupmode="layer"
     id="layer1">
    <path
       style="fill:none;stroke:#000000;stroke-width:0.26458332px;stroke-linecap:butt;stroke-linejoin:miter;stroke-opacity:1"
       d="m 170.42474,74.402732 c -1.67569,-1.322919 -5.02641,-4.334647 -4.96093,-4.28295"
       id="path3751"
       inkscape:connector-curvature="0"
       sodipodi:nodetypes="cc" />
    <path
       style="fill:#000000;stroke-width:0.26458332"
       d="m 209.58137,92.129307 c -1.34105,-0.583729 -2.96766,-2.508763 -4.20612,-4.977773 -0.66898,-1.333687 -2.28947,-5.782907 -3.82527,-10.502648 -3.10505,-9.54229 -4.51796,-12.653023 -6.90715,-15.207072 -3.24648,-3.470492 -5.82535,-3.68903 -14.04932,-1.190554 -4.70477,1.429324 -9.33533,4.1588 -13.58479,8.007517 l -1.90871,1.728713 -2.16146,-0.346088 c -1.18881,-0.190349 -2.23061,-0.415232 -2.31512,-0.499743 -0.39867,-0.398668 6.66311,-7.316774 10.73317,-10.514808 2.27875,-1.790515 6.04775,-4.279929 8.48821,-5.606439 4.67257,-2.539773 8.69307,-3.825335 14.65272,-4.685231 4.29198,-0.619276 5.95422,-0.484045 9.77188,0.794988 8.03824,2.693056 15.68691,9.034759 19.08694,15.825451 3.99353,7.976061 2.05985,16.886952 -5.26758,24.274362 -1.68815,1.701972 -2.44504,2.262868 -3.65961,2.711979 -1.7353,0.641654 -3.63538,0.715084 -4.84779,0.187346 z"
       id="path3775"
       inkscape:connector-curvature="0" />
    <path
       style="fill:#28170b;stroke-width:0.13229166"
       d="m 90.294346,91.82613 c 0.147524,-0.811686 1.082632,-3.019449 1.782683,-4.208865 2.489184,-4.229229 7.517294,-8.722973 12.311171,-11.002787 6.46293,-3.073559 11.62748,-5.054619 16.07344,-6.165572 5.64739,-1.411169 11.7809,-2.489544 17.85937,-3.139985 2.19209,-0.234569 3.47392,-0.283845 7.47448,-0.287322 2.65575,-0.0024 5.76714,0.06603 6.91418,0.151855 2.03522,0.152286 6.38037,0.773298 7.96863,1.13888 1.76597,0.406488 4.96094,1.553433 4.96094,1.7809 0,0.092 -1.40287,0.279352 -3.57188,0.477025 -1.51946,0.138475 -7.07085,1.097905 -12.17083,2.103443 -4.8943,0.964988 -4.99559,0.979046 -7.54062,1.046512 -2.70398,0.07168 -3.93934,0.225324 -7.2057,0.896207 -9.52902,1.957179 -24.47103,7.719745 -41.326378,15.938026 l -3.619071,1.764575 z"
       id="path4590"
       inkscape:connector-curvature="0" />
    <path
       style="fill:none;stroke-width:0.5"
       d="m 589.66498,456.95881 c -46.24139,-4.75597 -69.21728,-28.56544 -64.96766,-67.32471 0.83768,-7.64011 4.23735,-21.48759 5.901,-24.03579 0.36726,-0.56253 1.08332,-0.57724 4.13047,-0.0848 9.75238,1.57589 15.21566,3.09062 21.00197,5.82291 6.5887,3.11118 12.35258,4.53372 19.93422,4.91982 l 4.75,0.2419 -5.75,-0.68076 c -6.05142,-0.71645 -10.76439,-1.70092 -14.48361,-3.02539 -2.48531,-0.88506 -6.7092,-3.237 -6.38881,-3.55739 0.11335,-0.11335 8.28726,1.3943 18.16426,3.35033 l 17.95816,3.55643 12.25,-0.32357 c 6.7375,-0.17796 15.33137,-0.59759 19.09749,-0.93252 l 6.84749,-0.60895 1.11298,2.37626 c 0.61214,1.30695 1.15983,2.37626 1.21709,2.37626 0.0573,0 1.42505,-0.61576 3.03953,-1.36836 2.57858,-1.20202 3.54324,-1.36917 7.93542,-1.375 5.81034,-0.008 7.196,0.48997 14.48838,5.20373 5.33329,3.4474 13.24587,7.48015 19.51162,9.94435 4.33804,1.70607 4.71595,1.76673 10.5,1.68545 3.3,-0.0464 7.2375,0.0929 8.75,0.30953 1.99931,0.28633 0.56617,0.3879 -5.25,0.37207 -6.82505,-0.0186 -8.24548,0.11216 -9.67146,0.8901 -0.91931,0.50153 -1.78295,0.80039 -1.91921,0.66413 -0.13625,-0.13625 0.36463,-0.56859 1.11307,-0.96074 l 1.36081,-0.713 -2.1916,-0.54791 c -1.20538,-0.30136 -20.49803,-4.16062 -42.87254,-8.57613 l -40.68092,-8.02822 -7.06908,0.0772 -7.06907,0.0772 7.75,0.38531 c 7.17463,0.3567 10.79359,0.98481 48.74601,8.46044 22.5478,4.44132 41.0707,8.14982 41.16199,8.24111 0.27039,0.2704 -7.52678,6.78391 -9.158,7.65031 -0.9384,0.49842 -3.23158,0.87737 -6.125,1.01217 -2.54375,0.11851 -4.625,0.4288 -4.625,0.68953 0,0.26073 -0.44176,0.33384 -0.98169,0.16247 -1.93468,-0.61404 -8.6456,7.71427 -10.19393,12.65076 -0.69728,2.2231 -0.74258,7.48801 -0.1557,18.09343 0.19456,3.51573 2.56101,8.63827 6.95934,15.06451 l 3.29521,4.81451 -4.33661,0.5538 c -9.12807,1.1657 -17.60701,2.03961 -24.68031,2.54376 -8.59611,0.61269 -32.27561,0.58398 -38.40631,-0.0466 z m 56.84156,-24.52376 c -0.15961,-0.39886 -0.27809,-0.28039 -0.30208,0.30209 -0.0217,0.52708 0.0965,0.82239 0.26261,0.65625 0.16614,-0.16615 0.1839,-0.5974 0.0394,-0.95834 z m -0.5,-2 c -0.15961,-0.39886 -0.27809,-0.28039 -0.30208,0.30209 -0.0217,0.52708 0.0965,0.82239 0.26261,0.65625 0.16614,-0.16615 0.1839,-0.5974 0.0394,-0.95834 z m -0.48277,-6.27437 c -0.11492,-0.76003 -0.21203,-0.25688 -0.21578,1.11812 -0.004,1.375 0.0903,1.99685 0.20896,1.38188 0.11868,-0.61497 0.12175,-1.73997 0.007,-2.5 z m 0.48771,-3.99736 c -0.12677,-0.48649 -0.23883,-0.20952 -0.24902,0.61548 -0.0102,0.825 0.0935,1.22303 0.23049,0.88452 0.13696,-0.33852 0.1453,-1.01352 0.0186,-1.5 z"
       id="path4600"
       inkscape:connector-curvature="0"
       transform="scale(0.26458333)" />
    <g
       id="g863">
      <g
         transform="matrix(1,0,0,1.026701,-0.349013,-3.23935)"
         id="g4604">
        <g
           id="g856">
          <path
             inkscape:connector-curvature="0"
             id="path4592"
             d="m 178.69235,105.26164 c 0,0 -4.10104,-1.19063 -7.40833,-3.57187 -3.30729,-2.381228 -6.21771,-0.26457 -6.21771,-0.26457 l -0.66146,-1.32291 c 0,0 -15.21354,1.71978 -19.31458,-1.190623 -4.10104,-2.910417 -6.62833,-1.580507 -6.62833,-1.580507"
             style="fill:#000000;stroke:#000000;stroke-width:0;stroke-linecap:butt;stroke-linejoin:miter;stroke-miterlimit:4;stroke-dasharray:none;stroke-opacity:1" />
          <path
             inkscape:connector-curvature="0"
             id="path4598"
             d="m 155.81563,121.34294 c -3.63153,-0.42164 -6.68434,-1.21292 -9.13322,-2.36731 -6.17631,-2.91146 -9.01457,-8.23373 -8.20494,-15.38574 0.226,-1.99639 1.16108,-5.682781 1.61314,-6.359471 0.0994,-0.14884 0.2948,-0.15273 1.12727,-0.0224 2.63947,0.41309 4.15543,0.81533 5.5233,1.46553 2.26075,1.074626 3.86923,1.378141 8.35413,1.576361 l 2.74287,0.12123 11.24772,2.13733 c 6.18625,1.17553 11.26615,2.15441 11.28865,2.17529 0.0723,0.0671 -2.07512,1.80426 -2.49955,2.02202 -0.25969,0.13323 -0.93507,0.23852 -1.84397,0.28745 -1.64126,0.0884 -1.83193,0.1747 -2.72107,1.23188 -1.28875,1.53233 -1.78035,2.75058 -1.85519,4.59738 l -0.0509,1.25677 c 0.1803,0.73412 0.0662,0.92677 0.80158,2.64583 0.25448,0.58209 0.90353,1.69098 1.44235,2.46421 l 0.97965,1.40587 -0.69823,0.0839 c -3.07424,0.36932 -5.50813,0.61759 -7.21187,0.73566 -2.78251,0.19282 -8.97398,0.15208 -10.90164,-0.0717 z"
             style="fill:#000000;stroke-width:0.1344239"
             sodipodi:nodetypes="ccccccccsccccccccccccc" />
        </g>
      </g>
      <path
         inkscape:connector-curvature="0"
         id="path4606"
         d="m 139.68625,96.849701 -5.6995,3e-6 c 0,0 -5.79613,9.121126 -4.60551,15.074256 1.19063,5.95312 -20.5052,-16.007296 -20.5052,-16.007296 0,0 2.93512,-4.901785 14.02291,-1.984373 0,0 12.96457,1.322915 15.21354,-0.132291 2.24897,-1.455206 2.91042,-7.408331 5.29167,-8.06979 2.38125,-0.661458 1.05834,12.7 1.05834,12.7 z"
         style="fill:#000000;stroke:#000000;stroke-width:0.26458332px;stroke-linecap:butt;stroke-linejoin:miter;stroke-opacity:1"
         sodipodi:nodetypes="cccccsscc" />
    </g>
    <path
       style="fill:#917c6f;stroke:#000000;stroke-width:0;stroke-linecap:butt;stroke-linejoin:miter;stroke-miterlimit:4;stroke-dasharray:none;stroke-opacity:1"
       d="m 142.55235,122.02318 c 0,0 -8.99584,32.27917 -32.27917,46.0375 0,0 34.39584,30.1625 7.40834,64.02917 0,0 59.26666,0 76.2,-14.81667 16.93333,-14.81667 9.525,-58.20833 8.99583,-56.62083 -0.52917,1.5875 -4.6855,-33.02696 -28.5365,-40.0614 0,0 -20.14683,3.5489 -31.7885,1.43223 z"
       id="path4614"
       inkscape:connector-curvature="0" />
    <path
       style="fill:#917c6f;stroke-width:0;stroke-miterlimit:4;stroke-dasharray:none"
       d="m 52.82121,388.7797 -2.036695,-0.80813 0.021,-4.09852 c 0.02319,-4.52417 -0.479619,-9.05045 -1.107209,-9.96696 -0.442966,-0.64692 -4.939592,-0.77892 -8.27828,-0.24303 -1.992427,0.31978 -4.031358,-0.37377 -4.031358,-1.3713 0,-0.40814 -0.484666,-0.59384 -1.549908,-0.59384 -1.262592,0 -1.740045,0.25438 -2.57559,1.3722 -1.180233,1.57891 -1.391046,0.80361 -0.376645,-1.38515 0.74573,-1.60909 0.326766,-1.51092 6.741787,-1.5798 2.709968,-0.0291 5.686601,-0.28838 6.614738,-0.57614 3.821733,-1.18503 4.272598,-4.82382 3.287261,-26.53068 -0.402591,-8.86907 -0.729169,-17.26136 -0.725723,-18.64951 l 0.0062,-2.52396 h 4.250611 c 3.545432,0 4.752995,0.17831 7.278842,1.0747 1.665527,0.59108 3.113011,1.13695 3.216634,1.21308 0.103622,0.0761 -0.250476,0.55957 -0.786883,1.07433 -0.926581,0.8892 -0.98391,1.36808 -1.148061,9.58937 -0.165201,8.27419 -1.27411,20.12562 -3.410699,36.45178 -0.489388,3.73954 -0.889799,7.20576 -0.889799,7.70276 0,0.49698 1.117068,2.25306 2.48237,3.90234 2.294597,2.7719 2.658831,3.03726 4.815234,3.50809 1.283075,0.28015 5.097388,0.55273 8.476248,0.60577 5.224912,0.082 6.26292,0.20485 6.942899,0.82178 0.76868,0.69746 0.727749,0.71516 -1.06145,0.45934 -1.603234,-0.22921 -1.931092,-0.14792 -2.367382,0.58703 -0.389073,0.65543 -0.932239,0.85311 -2.343819,0.85311 -2.867666,0 -17.498998,-1.58539 -18.623832,-2.01805 -0.854279,-0.32854 -1.00784,-0.69656 -1.00784,-2.41541 0,-1.1153 -0.201566,-2.02781 -0.447927,-2.02781 -0.246362,0 -0.447929,0.97031 -0.447929,2.15626 0,1.90811 0.128868,2.20917 1.119822,2.61625 1.145314,0.47044 1.5701,1.72114 0.559911,1.64853 -0.307953,-0.0222 -1.476424,-0.40393 -2.596603,-0.84843 z"
       id="path4616"
       inkscape:connector-curvature="0" />
    <g
       id="g850"
       transform="translate(-1.5875,-1.5875)">
      <path
         inkscape:connector-curvature="0"
         id="path4618"
         d="m 198.46773,358.12629 c -7.89398,-1.72985 -16.7612,-7.92359 -19.69898,-13.75971 -1.26979,-2.52251 -2.81357,-3.93118 -6.83075,-6.23287 l -2.93874,-1.68381 -8.60607,0.0429 c -7.82974,0.039 -17.34629,0.75412 -26.01372,1.95464 l -2.06636,0.2862 -6.59758,-5.28921 -6.59758,-5.28923 2.67711,-0.85278 c 5.84986,-1.86346 11.90415,-5.31799 16.42292,-9.3708 1.18048,-1.05876 2.29176,-1.83512 2.46952,-1.72527 0.17777,0.10988 0.43328,1.67878 0.56782,3.48644 0.13454,1.80769 0.43175,4.59163 0.66048,6.18657 l 0.41588,2.89989 h 10.03538 c 5.91899,0 10.44735,-0.15664 11.03971,-0.38185 2.06804,-0.78629 6.10114,-1.11953 8.86655,-0.73266 3.18295,0.44529 5.2306,1.0727 9.82215,3.00958 8.42534,3.55412 19.6683,4.84206 32.0264,3.6688 6.44565,-0.61193 10.89594,0.4051 13.71678,3.13475 1.4831,1.43515 1.598,2.07963 0.18709,1.04931 -1.11803,-0.81645 -4.67812,-1.38713 -6.22748,-0.99824 -0.81705,0.20505 -0.92412,0.39356 -0.74168,1.30582 0.25949,1.29739 -0.57471,3.03578 -2.00362,4.17542 -0.9999,0.79748 -1.24767,0.81915 -7.0233,0.61454 -6.4698,-0.2292 -22.92909,-2.23694 -28.11562,-3.4296 -0.47559,-0.10938 -1.82229,-1.62537 -3.3169,-3.73388 -2.44065,-3.44311 -5.37362,-6.55947 -6.17348,-6.55947 -0.21564,0 0.59228,0.96819 1.79538,2.15151 1.20309,1.18335 3.06716,3.4095 4.14237,4.94705 1.72248,2.46311 1.87506,2.82702 1.28322,3.06064 -0.60894,0.2404 -0.60151,0.26763 0.0795,0.29147 0.41318,0.0146 1.67603,0.97639 2.80633,2.13765 4.44671,4.56842 12.53005,8.36329 21.51232,10.09933 2.8303,0.54702 3.56162,0.84272 4.58367,1.85332 0.90712,0.89694 1.21608,1.53215 1.21608,2.50024 v 1.2978 l -1.63456,-1.63457 c -2.0356,-2.03559 -3.60392,-2.27023 -3.60392,-0.53919 0,2.472 -2.90156,3.20635 -8.13636,2.05923 z"
         style="fill:#917c6f;stroke-width:0;stroke-miterlimit:4;stroke-dasharray:none" />
      <path
         inkscape:connector-curvature="0"
         id="path4620"
         d="m 161.42689,352.07279 c -1.7312,-1.80678 -2.66119,-4.35073 -2.25934,-6.18035 0.27761,-1.26394 2.3941,-4.6837 4.98012,-8.04674 1.65894,-2.15739 1.70763,-2.18734 3.1761,-1.95252 0.82024,0.13115 1.81418,0.41127 2.20877,0.62243 0.68063,0.36428 0.65207,0.474 -0.55694,2.13961 -1.96832,2.71168 -2.25747,3.44858 -2.3442,5.974 -0.0894,2.60294 -0.78575,4.03214 -2.23263,4.58226 -0.52315,0.19889 -0.91587,0.64963 -0.91587,1.05119 0,0.77759 1.59742,2.68314 2.24928,2.68314 0.22777,0 0.31006,0.16838 0.18287,0.37418 -0.12719,0.20579 -0.83951,0.37417 -1.58293,0.37417 -1.10581,0 -1.63427,-0.29493 -2.90523,-1.62137 z"
         style="fill:#917c6f;stroke-width:0;stroke-miterlimit:4;stroke-dasharray:none" />
    </g>
    <path
       style="fill:#917c6f;stroke-width:0;stroke-miterlimit:4;stroke-dasharray:none"
       d="m -90.034968,307.24577 c -1.830933,-0.29495 -3.412546,-0.61986 -3.514696,-0.72202 -0.24394,-0.24394 -2.125702,0.35497 22.883265,-7.28308 12.114543,-3.69993 22.11911,-6.81982 22.232368,-6.93308 0.556313,-0.55632 -0.44994,-0.42956 -4.221835,0.53178 -3.95026,1.00682 -19.197332,3.98053 -28.998743,5.65579 -3.127845,0.53461 -5.482888,0.73228 -7.10937,0.59671 -2.819029,-0.23495 -8.287511,-1.30897 -8.702984,-1.70931 -0.231047,-0.22262 42.521452,-13.04248 73.435664,-22.02058 5.839624,-1.69593 7.115734,-2.19734 8.159172,-3.20585 3.10654,-3.00255 6.3557316,-22.79677 13.3699776,-46.84512 9.46977,-32.46711 9.726908,-31.12497 14.1093594,-40.59824 2.479314,-5.35938 15.159192,-24.78393 18.781977,-29.71031 8.676072,-11.79801 27.842591,-18.65518 42.587181,-23.63792 l 3.65042,-1.23362 17.61695,18.96488 17.616952,18.96488 -8.17116,8.04541 c -8.877592,8.74097 -17.971162,17.17764 -27.076032,25.12012 -7.77683,6.784 -12.91349,12.82508 -19.57052,23.01634 -5.19906,7.95926 -9.47031,15.48491 -14.9412,26.32543 -3.90528,7.73827 -5.39546,10.35194 -6.00948,10.54016 -0.44907,0.13766 -3.510567,0.76466 -6.803327,1.39334 -7.457036,1.42375 -9.327759,1.97773 -11.429337,3.38455 -2.557195,1.71183 -3.539714,3.42993 -3.528238,6.16974 0.01171,2.79847 1.404052,5.61253 4.489687,9.07415 1.716258,1.9254 1.950119,2.34614 1.39988,2.51846 -0.363334,0.1138 -16.404114,4.76179 -35.646184,10.32886 -31.497169,9.11267 -35.899655,10.29443 -44.152925,11.85209 -9.074245,1.71257 -9.258543,1.73125 -18.147601,1.84145 -6.473822,0.0802 -9.909387,-0.0384 -12.309221,-0.42501 z"
       id="path4624"
       inkscape:connector-curvature="0"
       sodipodi:nodetypes="ccsccscccssssccccsssscsccccsccc" />
    <path
       style="fill:#28170b;stroke-width:0;stroke-miterlimit:4;stroke-dasharray:none"
       d=""
       id="path4636"
       inkscape:connector-curvature="0"
       transform="scale(0.26458333)" />
    <path
       style="fill:#917c6f;fill-opacity:1;stroke-width:0;stroke-miterlimit:4;stroke-dasharray:none"
       d="m 18.456434,287.14397 c -0.368144,-0.69455 -0.416638,-0.95824 -0.472382,-2.56848 -0.07044,-2.03489 0.182168,-3.46334 0.993583,-5.61841 1.774526,-4.71311 6.752149,-10.44339 13.268891,-15.27526 1.102902,-0.81774 2.00788,-1.54365 2.011058,-1.61311 0.0031,-0.0695 -0.338189,-0.0873 -0.758601,-0.0396 -0.456477,0.0517 -0.06059,-0.0936 0.98278,-0.36121 0.960942,-0.24633 1.823204,-0.50043 1.916138,-0.56469 0.09294,-0.0642 0.355007,-0.4424 0.58239,-0.84035 0.227379,-0.39795 0.48845,-0.72368 0.580155,-0.72384 0.0917,-1.5e-4 2.086519,-2.30034 4.432922,-5.11155 5.220122,-6.25416 14.125021,-16.13202 16.56259,-18.37223 0.988803,-0.90874 1.828648,-1.61819 1.866325,-1.57652 0.03767,0.0416 -0.159745,0.40636 -0.438714,0.81045 -1.498648,2.17085 -1.58589,5.02942 -0.237826,7.79278 0.842323,1.72666 1.767809,2.94719 3.956631,5.21797 2.20435,2.28693 3.387025,3.85315 4.073116,5.3941 0.429669,0.96502 0.484828,1.23881 0.484828,2.40655 0,1.20772 -0.03691,1.3757 -0.442404,2.01362 -0.573865,0.9028 -1.723408,1.86949 -2.506861,2.10808 -0.406626,0.12382 -0.982351,0.54345 -1.674367,1.22038 -16.564263,16.20302 -31.988121,25.6133 -43.223139,26.37104 l -1.546856,0.10421 z"
       id="path4648"
       inkscape:connector-curvature="0" />
    <path
       style="fill:#deaa87;stroke:#000000;stroke-width:0;stroke-linecap:butt;stroke-linejoin:miter;stroke-miterlimit:4;stroke-dasharray:none;stroke-opacity:1"
       d="m 197.37915,213.39166 c 0,0 -9.525,25.4 -10.58333,38.1 -1.05833,12.7 -11.1125,39.6875 -29.10417,48.68333 0,0 -25.81826,23.15207 -40.16121,26.92187 -14.34295,3.7698 -59.538088,4.23013 -98.853008,-18.48962 0,0 -5.27707,12.16223 -71.243917,-4.74959 l 72.137567,-21.23142 c 0,0 14.29559,-1.50124 22.76225,-7.32207 8.46667,-5.82083 18.3476,-15.8127 18.3476,-15.8127 0,0 20.16546,3.99657 57.000588,-28.45995 0,0 55.35596,0.35182 79.69763,-17.63985 z"
       id="path37"
       inkscape:connector-curvature="0" />
    <path
       style="fill:#deaa87;fill-opacity:1;stroke-width:0;stroke-miterlimit:4;stroke-dasharray:none"
       d="m 93.816741,148.90781 -17.229992,-18.54554 1.274138,-1.14555 c 2.432738,-2.18724 3.737983,-5.85878 4.280458,-12.04053 0.695402,-7.92445 2.455651,-14.81213 6.277054,-24.561506 l 1.518814,-3.874883 4.146394,-4.167188 c 4.206216,-4.227306 6.451443,-5.895067 2.822057,-2.096227 -3.109484,3.25466 -4.970794,6.30596 -4.970794,8.148764 0,0.345506 0.04653,0.628192 0.103408,0.628192 0.05687,0 1.872577,-0.846325 4.034895,-1.880724 23.082687,-11.042174 39.209267,-16.277275 48.262167,-16.688641 1.3844,-0.122818 1.43173,-0.103531 3.86628,-0.205169 3.07977,-0.08894 2.92519,0.214266 -0.48822,0.676942 -4.57735,1.186251 -12.42303,5.141812 -15.52066,7.922665 -1.08573,0.974698 -1.82807,1.302165 -6.25892,2.760977 -8.63244,2.842149 -12.59988,4.429879 -13.4503,5.382691 -0.87264,0.977704 -2.43413,3.230761 -3.43631,4.958234 l -0.70034,1.20718 3.50735,3.193401 c 7.52422,6.850722 12.4438,10.803482 15.53054,12.478382 1.7658,0.95815 1.92618,1.12344 2.75817,2.84266 1.7029,3.51887 5.2582,6.03583 10.6737,7.55641 1.20055,0.33709 2.18282,0.75414 2.18282,0.92676 0,0.70623 -2.55469,7.61864 -4.13987,11.20156 -5.44952,12.31735 -13.12075,22.84473 -21.64799,29.708 -2.55981,2.0603 -5.57327,4.15867 -5.97223,4.15867 -0.10595,0 -7.94613,-8.34549 -17.422619,-18.54553 z"
       id="path846"
       inkscape:connector-curvature="0"
       sodipodi:nodetypes="sccsscssssscccsscccscscsssss" />
    <path
       style="fill:#28170b;stroke-width:0;stroke-miterlimit:4;stroke-dasharray:none"
       d="m 36.480953,261.14719 c 0,0 1.046934,-2.03709 1.642215,-3.15314 0.595278,-1.11606 2.524953,-4.54713 4.11667,-7.68291 4.640544,-9.14215 6.092463,-12.31538 7.659504,-14.50678 1.36286,-1.90587 1.306391,-3.54553 1.582142,-3.47285 0.128069,0.0337 3.276945,1.81779 5.095359,3.16858 l 3.072342,2.59907 -0.56964,0.32612 c -2.630541,1.50607 -9.81802,9.06421 -18.725976,19.01796 -2.570125,2.87186 -3.872616,3.70395 -3.872616,3.70395 z"
       id="path4638"
       inkscape:connector-curvature="0"
       sodipodi:nodetypes="ccscccccsc" />
    <path
       style="fill:#784421;stroke:#000000;stroke-width:0;stroke-linecap:butt;stroke-linejoin:miter;stroke-miterlimit:4;stroke-dasharray:none;stroke-opacity:1"
       d="m 111.33152,167.00234 c 0,0 35.00392,33.91751 7.40834,64.02917 -27.595581,30.11165 -57.529766,28.98912 -57.529766,28.98912 0,0 7.857722,-2.24506 -1.122532,-10.10278 -8.980257,-7.85773 -1.496711,-12.34786 -1.496711,-12.34786 l -7.109367,-5.23848 c 4.309969,-5.85202 4.45935,-6.56865 9.72861,-14.21874 0,0 6.066612,-9.05224 12.711014,-14.69928 6.375372,-5.4184 37.410412,-36.41115 37.410412,-36.41115"
       id="path4630"
       inkscape:connector-curvature="0"
       sodipodi:nodetypes="cscscccsc" />
    <path
       style="fill:#28170b;stroke:#000000;stroke-width:0;stroke-linecap:butt;stroke-linejoin:miter;stroke-miterlimit:4;stroke-dasharray:none;stroke-opacity:1"
       d="m 21.158582,283.68457 c 0,0 -28.7389643,-20.5676 18.509842,-23.44706 -25.816358,13.98597 -18.509842,23.44706 -18.509842,23.44706 z"
       id="path4632"
       inkscape:connector-curvature="0" />
    <path
       style="fill:#28170b;stroke:#000000;stroke-width:0;stroke-linecap:butt;stroke-linejoin:miter;stroke-miterlimit:4;stroke-dasharray:none;stroke-opacity:1"
       d="m 193.57453,106.91791 c 0,0 -2.30572,-13.908787 -16.71154,-15.031307 -14.40582,-1.12252 -13.17034,8.213187 -13.17034,8.213187 l 0.66145,1.35825 c 0,0 2.68674,-1.994327 6.14788,0.25074 3.46114,2.24506 6.52108,3.8653 7.47817,3.68815 0.95708,-0.17713 7.30183,-0.22701 9.17272,0.70843 1.87089,0.93545 3.57739,0.0188 3.57739,0.0188 z"
       id="path852"
       inkscape:connector-curvature="0" />
    <path
       style="fill:#deaa87;fill-opacity:1;stroke:#000000;stroke-width:0;stroke-linecap:butt;stroke-linejoin:miter;stroke-miterlimit:4;stroke-dasharray:none;stroke-opacity:1"
       d="m 178.66968,92.2154 c 0,0 -3.51553,-14.290394 -8.5426,-18.259152 0,0 -23.16893,6.76925 -26.53653,11.446467 0,0 2.1983,0.374177 1.16931,11.88013 0,0 5.63604,4.139335 18.80241,2.338609 0,0 -0.21047,-9.534189 15.10741,-7.406054 z"
       id="path865"
       inkscape:connector-curvature="0"
       sodipodi:nodetypes="cccccc" />
    <path
       style="fill:#784421;stroke:#000000;stroke-width:0;stroke-linecap:butt;stroke-linejoin:miter;stroke-miterlimit:4;stroke-dasharray:none;stroke-opacity:1"
       d="m 163.69265,100.62896 c 0,0 -0.0479,-3.389379 1.14276,-4.315421 1.19063,-0.926041 -10.58333,-7.937499 -14.41979,-8.598958 0,0 14.38322,7.5725 13.27703,12.914379 z"
       id="path901"
       inkscape:connector-curvature="0" />
    <path
       style="opacity:0;fill:#784421;fill-opacity:1;stroke-width:0;stroke-miterlimit:4;stroke-dasharray:none"
       d="m 618.22186,370.04532 c -0.0596,-1.72181 -5.38264,-8.90294 -9.97255,-13.45373 -5.47364,-5.42698 -16.00603,-13.48059 -25.21597,-19.28144 -3.45272,-2.17469 -6.07052,-4.02767 -5.81732,-4.11775 0.65375,-0.23256 13.61364,6.10542 20.72775,10.13682 8.78665,4.97919 18.32601,11.40345 21.84651,14.71247 l 3.08213,2.89699 -1.2912,1.70875 c -0.71016,0.93981 -1.75021,3.17124 -2.31123,4.95874 -0.56102,1.7875 -1.03268,2.88512 -1.04812,2.43915 z"
       id="path907"
       inkscape:connector-curvature="0"
       transform="scale(0.26458333)" />
    <path
       style="fill:none;stroke:#000000;stroke-width:0.26458332px;stroke-linecap:butt;stroke-linejoin:miter;stroke-opacity:1"
       d="m 166.3686,94.242653 c 0,0 1.63702,-1.169305 2.43215,-1.356391 0.79513,-0.18709 -4.30304,-6.828738 -7.76418,-8.18513 -3.46114,-1.356394 4.11595,0.561264 5.33203,9.541521 z"
       id="path926"
       inkscape:connector-curvature="0"
       sodipodi:nodetypes="ccsc" />
    <path
       style="opacity:0;fill:#784421;fill-opacity:1;stroke-width:0;stroke-miterlimit:4;stroke-dasharray:none"
       d="m 629.15044,354.63273 c -0.0543,-0.27273 -0.18535,-1.01294 -0.29118,-1.64491 -0.10582,-0.63198 -0.46353,-2.22297 -0.7949,-3.53554 -2.48735,-9.85222 -7.08381,-18.03056 -13.95262,-24.82539 -2.07512,-2.05278 -2.08163,-2.22833 -0.03,-0.81005 6.71293,4.64064 15.94876,14.21836 21.05534,21.83474 2.17373,3.24209 2.94377,5.03814 2.16003,5.03814 -0.58749,0 -4.70981,2.25168 -7.65365,4.18056 -0.37206,0.24378 -0.39979,0.23042 -0.493,-0.23755 z"
       id="path930"
       inkscape:connector-curvature="0"
       transform="scale(0.26458333)" />
    <path
       style="opacity:0;fill:#784421;fill-opacity:1;stroke-width:0;stroke-miterlimit:4;stroke-dasharray:none"
       d=""
       id="path932"
       inkscape:connector-curvature="0"
       transform="scale(0.26458333)" />
    <path
       style="opacity:0;fill:#784421;fill-opacity:1;stroke-width:0;stroke-miterlimit:4;stroke-dasharray:none"
       d="m 629.15044,354.63273 c -0.0543,-0.27273 -0.18535,-1.01294 -0.29118,-1.64491 -0.10582,-0.63198 -0.46353,-2.22297 -0.7949,-3.53554 -2.48735,-9.85222 -7.08381,-18.03056 -13.95262,-24.82539 -2.07512,-2.05278 -2.08163,-2.22833 -0.03,-0.81005 6.71293,4.64064 15.94876,14.21836 21.05534,21.83474 2.17373,3.24209 2.94377,5.03814 2.16003,5.03814 -0.58749,0 -4.70981,2.25168 -7.65365,4.18056 -0.37206,0.24378 -0.39979,0.23042 -0.493,-0.23755 z"
       id="path934"
       inkscape:connector-curvature="0"
       transform="scale(0.26458333)" />
    <path
       style="opacity:0;fill:#784421;fill-opacity:1;stroke-width:0;stroke-miterlimit:4;stroke-dasharray:none"
       d="m 628.33296,356.46296 c 0,-1.80977 -1.28866,-7.54111 -2.51038,-11.16493 -3.54424,-10.51282 -10.66209,-19.97019 -19.01218,-25.26116 -1.50962,-0.95657 -1.87619,-1.3507 -1.48251,-1.594 0.18253,-0.11282 5.1261,1.9618 6.33448,2.65832 6.61031,3.81026 15.07623,11.79239 21.81981,20.57292 3.55948,4.63465 5.50592,8.09381 5.2124,9.2633 -0.0778,0.3098 -0.39423,0.51365 -1.33878,0.86238 -1.54208,0.56934 -4.28644,2.09924 -6.75697,3.76682 -1.03861,0.70105 -1.97332,1.32713 -2.07713,1.39129 -0.11991,0.0741 -0.18874,-0.10638 -0.18874,-0.49494 z m 2.95104,-2.42068 c 2.02918,-1.32101 4.82483,-2.81238 5.94651,-3.17223 0.61023,-0.19577 0.66641,-0.26373 0.56634,-0.68497 -0.38587,-1.6242 -2.59476,-5.0263 -6.22983,-9.59509 -4.86084,-6.10943 -11.68212,-12.8178 -16.63932,-16.3639 -1.83868,-1.31529 -4.24602,-2.78984 -4.36326,-2.6726 -0.0464,0.0464 0.41538,0.48985 1.0262,0.98543 1.6035,1.30099 5.13772,4.98526 6.65504,6.9376 5.20859,6.70184 8.68846,14.48283 10.37742,23.20388 0.27753,1.43303 0.55994,2.60551 0.62759,2.60551 0.0677,0 0.98264,-0.55963 2.03331,-1.24363 z"
       id="path936"
       inkscape:connector-curvature="0"
       transform="scale(0.26458333)" />
    <path
       style="opacity:0;fill:#784421;fill-opacity:1;stroke-width:0;stroke-miterlimit:4;stroke-dasharray:none"
       d="m 586.70205,377.97936 c -12.29034,-0.75781 -22.72598,-2.83495 -31.37862,-6.2457 -2.29478,-0.90457 -6.98846,-3.21094 -7.64597,-3.75705 l -0.48726,-0.40472 0.25809,-3.18198 c 0.7386,-9.106 0.9561,-20.99545 0.47701,-26.07456 -0.7562,-8.01679 -2.14544,-12.95499 -4.16943,-14.82064 -0.44333,-0.40865 -0.80605,-0.82145 -0.80605,-0.91736 0,-0.36863 3.18696,-3.35139 5.14363,-4.81405 9.82868,-7.34717 30.14799,-16.4773 59.29147,-26.6416 9.92372,-3.46107 23.25019,-7.80934 31.7774,-10.36859 l 3.84668,-1.1545 0.68695,0.54408 c 0.37783,0.29924 1.49302,1.38833 2.4782,2.4202 7.89541,8.26955 15.68772,23.74191 23.00381,45.67619 2.53902,7.61222 6.15875,19.87676 5.93301,20.1025 -0.0386,0.0386 -1.45114,-0.0905 -3.13897,-0.28687 -8.88252,-1.03351 -17.95818,-0.94469 -24.90071,0.2437 -2.05019,0.35094 -5.586,1.20367 -6.98087,1.68358 -1.25686,0.43242 -1.32763,0.43455 -1.32763,0.0398 0,-0.54944 -1.21346,-2.87183 -2.50896,-4.80181 -2.87283,-4.27981 -6.9441,-9.12548 -11.53505,-13.72914 -6.56291,-6.5811 -10.82183,-9.72308 -16.43307,-12.12339 -2.1515,-0.92034 -2.86736,-1.15633 -3.04939,-1.00525 -0.49514,0.41092 -0.2547,0.83154 0.79521,1.39114 3.02223,1.61083 8.87794,6.9554 11.71831,10.69542 5.21255,6.86358 8.56126,14.65659 10.07812,23.45348 l 0.39031,2.26359 -2.02945,2.0791 c -1.11619,1.1435 -2.28759,2.45715 -2.6031,2.91923 l -0.57367,0.84014 -1.45076,-1.45886 c -8.71545,-8.76408 -40.02875,-26.19221 -51.78561,-28.82247 -0.65628,-0.14682 -1.1918,-0.21516 -1.19003,-0.15186 0.002,0.0633 0.73759,0.50567 1.63518,0.98306 3.99596,2.12527 11.39437,6.61675 16.56961,10.0592 17.37485,11.55733 27.64821,21.58946 31.01971,30.2913 0.42985,1.10944 0.47568,1.40883 0.36865,2.40825 l -0.12222,1.14131 -0.82803,0.1162 c -1.71565,0.24076 -7.13429,0.81492 -10.28557,1.08986 -3.08384,0.26905 -17.39354,0.49461 -20.24093,0.31904 z"
       id="path938"
       inkscape:connector-curvature="0"
       transform="scale(0.26458333)" />
    <path
       style="opacity:0;fill:#784421;fill-opacity:1;stroke-width:0;stroke-miterlimit:4;stroke-dasharray:none"
       d="m 629.15044,354.63273 c -0.0543,-0.27273 -0.18535,-1.01294 -0.29118,-1.64491 -0.10582,-0.63198 -0.46353,-2.22297 -0.7949,-3.53554 -2.48735,-9.85222 -7.08381,-18.03056 -13.95262,-24.82539 -2.07512,-2.05278 -2.08163,-2.22833 -0.03,-0.81005 6.71293,4.64064 15.94876,14.21836 21.05534,21.83474 2.17373,3.24209 2.94377,5.03814 2.16003,5.03814 -0.58749,0 -4.70981,2.25168 -7.65365,4.18056 -0.37206,0.24378 -0.39979,0.23042 -0.493,-0.23755 z"
       id="path940"
       inkscape:connector-curvature="0"
       transform="scale(0.26458333)" />
  </g>
</svg>
