<?xml version="1.0" encoding="UTF-8" standalone="no"?>
<!-- Created with Inkscape (http://www.inkscape.org/) -->

<svg
   xmlns:dc="http://purl.org/dc/elements/1.1/"
   xmlns:cc="http://creativecommons.org/ns#"
   xmlns:rdf="http://www.w3.org/1999/02/22-rdf-syntax-ns#"
   xmlns:svg="http://www.w3.org/2000/svg"
   xmlns="http://www.w3.org/2000/svg"
   xmlns:sodipodi="http://sodipodi.sourceforge.net/DTD/sodipodi-0.dtd"
   xmlns:inkscape="http://www.inkscape.org/namespaces/inkscape"
   width="210mm"
   height="297mm"
   viewBox="0 0 210 297"
   version="1.1"
   id="svg8"
   inkscape:version="0.92.4 (5da689c313, 2019-01-14)"
   sodipodi:docname="Quail.svg">
  <defs
     id="defs2" />
  <sodipodi:namedview
     id="base"
     pagecolor="#ffffff"
     bordercolor="#666666"
     borderopacity="1.0"
     inkscape:pageopacity="0.0"
     inkscape:pageshadow="2"
     inkscape:zoom="0.64"
     inkscape:cx="453.89873"
     inkscape:cy="534.46797"
     inkscape:document-units="mm"
     inkscape:current-layer="layer1"
     showgrid="false"
     showguides="true"
     inkscape:window-width="1920"
     inkscape:window-height="1001"
     inkscape:window-x="-9"
     inkscape:window-y="-9"
     inkscape:window-maximized="1" />
  <metadata
     id="metadata5">
    <rdf:RDF>
      <cc:Work
         rdf:about="">
        <dc:format>image/svg+xml</dc:format>
        <dc:type
           rdf:resource="http://purl.org/dc/dcmitype/StillImage" />
        <dc:title />
      </cc:Work>
    </rdf:RDF>
  </metadata>
  <g
     inkscape:label="Layer 1"
     inkscape:groupmode="layer"
     id="layer1">
    <path
       style="fill:#000000;stroke-width:0.08371705"
       d="m 123.45296,138.27442 c -0.42433,-0.18469 -0.939,-0.7938 -1.33087,-1.57502 -0.21166,-0.42199 -0.72441,-1.82977 -1.21035,-3.32315 -0.98248,-3.01928 -1.42953,-4.00356 -2.1855,-4.81168 -1.02722,-1.09811 -1.8432,-1.16725 -4.44536,-0.37671 -1.48864,0.45226 -2.9538,1.31589 -4.29838,2.53367 l -0.60393,0.54698 -0.68391,-0.1095 c -0.37615,-0.0603 -0.70579,-0.13139 -0.73253,-0.15813 -0.12614,-0.12614 2.10828,-2.3151 3.39609,-3.327 0.72103,-0.56654 1.91358,-1.35422 2.68577,-1.77394 1.47844,-0.80361 2.75058,-1.21038 4.63627,-1.48246 1.35804,-0.19594 1.88399,-0.15316 3.09193,0.25154 2.54339,0.85212 4.96352,2.8587 6.03932,5.00735 1.2636,2.52371 0.65176,5.34322 -1.66672,7.68067 -0.53415,0.53853 -0.77364,0.716 -1.15794,0.8581 -0.54906,0.20303 -1.15027,0.22627 -1.53389,0.0593 z"
       id="path3775"
       inkscape:connector-curvature="0" />
    <path
       style="fill:#28170b;stroke-width:0.04185853"
       d="m 87.383585,138.6808 c 0.04668,-0.25683 0.342554,-0.95539 0.56406,-1.33174 0.787606,-1.33817 2.378557,-2.76004 3.895398,-3.48139 2.044941,-0.97251 3.679062,-1.59934 5.08581,-1.95086 1.786895,-0.44651 3.727607,-0.78772 5.650897,-0.99353 0.69361,-0.0742 1.09919,-0.0898 2.36501,-0.0909 0.84031,-7.2e-4 1.82479,0.0209 2.18772,0.0481 0.64397,0.0482 2.01882,0.24468 2.52137,0.36035 0.55876,0.12862 1.56969,0.49152 1.56969,0.56349 0,0.0291 -0.44388,0.0884 -1.13018,0.15094 -0.48077,0.0438 -2.2373,0.34739 -3.85099,0.66556 -1.5486,0.30533 -1.58066,0.30977 -2.38593,0.33112 -0.85557,0.0227 -1.24645,0.0713 -2.27996,0.28357 -3.015089,0.61927 -7.742903,2.44261 -13.076123,5.04297 l -1.145116,0.55833 z"
       id="path4590"
       inkscape:connector-curvature="0" />
    <path
       style="fill:none;stroke-width:0.04185853"
       d="m 107.17388,148.04869 c -3.87119,-0.39816 -5.79467,-2.39142 -5.4389,-5.63623 0.0701,-0.63961 0.35474,-1.79888 0.49402,-2.0122 0.0307,-0.0471 0.0907,-0.0484 0.34578,-0.007 0.81644,0.13193 1.27382,0.25873 1.75823,0.48748 0.55158,0.26045 1.03412,0.37954 1.66883,0.41187 l 0.39765,0.0203 -0.48136,-0.057 c -0.50661,-0.06 -0.90117,-0.14239 -1.21253,-0.25327 -0.20807,-0.0741 -0.56168,-0.27099 -0.53485,-0.29782 0.01,-0.01 0.69378,0.11673 1.52065,0.28048 l 1.50341,0.29774 1.02553,-0.0271 c 0.56404,-0.0149 1.2835,-0.05 1.59879,-0.0781 l 0.57325,-0.051 0.0932,0.19894 c 0.0512,0.10941 0.0971,0.19893 0.10189,0.19893 0.005,0 0.11929,-0.0515 0.25446,-0.11456 0.21587,-0.10063 0.29663,-0.11462 0.66432,-0.1151 0.48643,-6.8e-4 0.60243,0.041 1.21293,0.43563 0.44649,0.28861 1.10891,0.62622 1.63346,0.83252 0.36317,0.14283 0.3948,0.1479 0.87903,0.1411 0.27626,-0.004 0.60589,0.008 0.73252,0.0259 0.16738,0.024 0.0474,0.0325 -0.43951,0.0311 -0.57137,-0.001 -0.69029,0.009 -0.80967,0.0745 -0.077,0.042 -0.14926,0.067 -0.16067,0.0556 -0.0114,-0.0114 0.0305,-0.0476 0.0932,-0.0804 l 0.11392,-0.0597 -0.18347,-0.0459 c -0.10091,-0.0252 -1.71603,-0.34831 -3.58916,-0.71796 l -3.40569,-0.6721 -0.59181,0.007 -0.5918,0.007 0.64881,0.0322 c 0.60064,0.0298 0.90361,0.0824 4.08087,0.70829 1.88764,0.37181 3.43833,0.68228 3.44596,0.68992 0.0227,0.0226 -0.63011,0.56793 -0.76667,0.64046 -0.0786,0.0418 -0.27054,0.0735 -0.51277,0.0847 -0.21296,0.01 -0.38719,0.0359 -0.38719,0.0577 0,0.0219 -0.037,0.028 -0.0822,0.0136 -0.16196,-0.0514 -0.72378,0.64581 -0.8534,1.05908 -0.0584,0.18611 -0.0622,0.62688 -0.0131,1.51473 0.0163,0.29432 0.2144,0.72317 0.58262,1.26116 l 0.27586,0.40305 -0.36305,0.0464 c -0.76417,0.0976 -1.47401,0.17076 -2.06616,0.21296 -0.71964,0.0513 -2.70202,0.0489 -3.21527,-0.004 z m 4.75861,-2.05306 c -0.0134,-0.0334 -0.0233,-0.0234 -0.0253,0.0253 -0.001,0.0441 0.008,0.0688 0.022,0.055 0.0139,-0.0139 0.0154,-0.05 0.004,-0.0802 z m -0.0419,-0.16743 c -0.0134,-0.0334 -0.0233,-0.0234 -0.0253,0.0253 -0.001,0.0441 0.008,0.0688 0.022,0.055 0.0139,-0.0139 0.0154,-0.05 0.004,-0.0802 z m -0.0404,-0.52528 c -0.01,-0.0636 -0.0178,-0.0215 -0.0181,0.0936 -3.4e-4,0.11511 0.008,0.16717 0.0175,0.11569 0.01,-0.0515 0.0102,-0.14567 5.8e-4,-0.2093 z m 0.0408,-0.33464 c -0.0106,-0.0407 -0.02,-0.0176 -0.0208,0.0515 -7.3e-4,0.069 0.008,0.10238 0.0193,0.074 0.0115,-0.0283 0.0122,-0.0849 0.001,-0.12558 z"
       id="path4600"
       inkscape:connector-curvature="0" />
    <g
       id="g850"
       transform="matrix(0.31641093,0,0,0.31641093,57.808861,109.79344)">
      <g
         transform="matrix(1,0,0,1.026701,1.7676537,-2.7101833)"
         id="g4604">
        <path
           style="fill:#000000;stroke:#000000;stroke-width:0;stroke-linecap:butt;stroke-linejoin:miter;stroke-miterlimit:4;stroke-dasharray:none;stroke-opacity:1"
           d="m 179.38749,104.78021 c 0,0 -4.10104,-1.19063 -7.40833,-3.57188 -3.30729,-2.381247 -6.21771,-0.26458 -6.21771,-0.26458 l -0.66146,-1.322917 c 0,0 -15.21354,1.719797 -19.31458,-1.190625 -4.10104,-2.910417 -6.62833,-1.580507 -6.62833,-1.580507"
           id="path4592"
           inkscape:connector-curvature="0" />
        <path
           style="fill:#000000;stroke-width:0.1344239"
           d="m 146.50209,118.75691 c -6.17631,-2.91146 -9.01457,-8.23373 -8.20494,-15.38574 0.226,-1.99639 1.16108,-5.682779 1.61314,-6.359469 1.85354,-0.223525 4.85001,0.603512 6.65057,1.44313 4.57391,1.632039 6.60319,1.49897 11.097,1.697589 l 11.24772,2.13733 c 6.18625,1.17553 11.26615,2.15441 11.28865,2.17529 -1.22311,1.42031 -2.74178,2.2186 -4.34352,2.30947 -1.64126,0.0884 -1.83193,0.1747 -2.72107,1.23188 -2.84613,4.87135 -1.44137,8.41089 1.31749,12.37006 -2.64326,0.29808 -5.35722,0.63817 -7.9101,0.81956 -7.12068,-0.10187 -13.69827,0.48461 -20.03494,-2.4391 z"
           id="path4598"
           inkscape:connector-curvature="0"
           sodipodi:nodetypes="cccccscccccc" />
      </g>
      <path
         inkscape:connector-curvature="0"
         id="path4606"
         d="m 140.21542,96.849701 -5.6995,3e-6 c 0,0 -5.39925,8.195086 -4.20863,14.148216 1.19063,5.95312 -20.90208,-15.081256 -20.90208,-15.081256 0,0 2.93512,-4.901785 14.02291,-1.984373 0,0 12.96457,1.322915 15.21354,-0.132291 2.24897,-1.455206 2.91042,-7.408331 5.29167,-8.06979 2.38125,-0.661458 1.05834,12.7 1.05834,12.7 z"
         style="fill:#000000;stroke:#000000;stroke-width:0.26458332px;stroke-linecap:butt;stroke-linejoin:miter;stroke-opacity:1" />
    </g>
    <path
       style="fill:#917c6f;stroke:#000000;stroke-width:0;stroke-linecap:butt;stroke-linejoin:miter;stroke-miterlimit:4;stroke-dasharray:none;stroke-opacity:1"
       d="m 103.41629,148.40291 c 0,0 -2.84638,10.21348 -10.213486,14.56677 0,0 10.883216,9.54374 2.344079,20.25953 0,0 18.752617,0 24.110517,-4.68816 5.35789,-4.68816 3.01381,-18.41775 2.84638,-17.91545 -0.16743,0.5023 -1.48254,-10.45009 -9.02926,-12.67587 0,0 -6.37468,1.12292 -10.05823,0.45318 z"
       id="path4614"
       inkscape:connector-curvature="0" />
    <path
       style="fill:#917c6f;stroke-width:0;stroke-miterlimit:4;stroke-dasharray:none"
       d="m 74.52207,232.47272 -0.644433,-0.25571 0.0067,-1.29681 c 0.0073,-1.4315 -0.151756,-2.86366 -0.350332,-3.15366 -0.140159,-0.20469 -1.562942,-0.24645 -2.619339,-0.0769 -0.630426,0.10118 -1.275566,-0.11826 -1.275566,-0.4339 0,-0.12913 -0.153353,-0.1879 -0.490407,-0.1879 -0.399498,0 -0.550569,0.0805 -0.814945,0.43419 -0.373439,0.49958 -0.440143,0.25427 -0.119174,-0.43828 0.235957,-0.50913 0.103391,-0.47807 2.133174,-0.49987 0.857464,-0.009 1.799303,-0.0912 2.092976,-0.18229 1.209238,-0.37496 1.351896,-1.52632 1.040125,-8.3946 -0.127384,-2.80627 -0.230717,-5.46169 -0.229627,-5.90091 l 0.002,-0.79861 h 1.34494 c 1.121813,0 1.503899,0.0564 2.303105,0.34005 0.526991,0.18702 0.984991,0.35974 1.017778,0.38383 0.03279,0.0241 -0.07925,0.17705 -0.248978,0.33993 -0.29318,0.28135 -0.31132,0.43287 -0.363259,3.03418 -0.05227,2.61805 -0.403143,6.36797 -1.079182,11.53374 -0.154848,1.18323 -0.281543,2.27999 -0.281543,2.43724 0,0.15725 0.353452,0.71289 0.785449,1.23474 0.726036,0.87706 0.841283,0.96102 1.523593,1.11 0.405979,0.0887 1.612869,0.17489 2.681977,0.19168 1.653222,0.0259 1.981655,0.0648 2.196809,0.26002 0.243221,0.22067 0.230268,0.22628 -0.335853,0.14534 -0.507279,-0.0725 -0.611018,-0.0468 -0.74907,0.18574 -0.123102,0.20738 -0.294963,0.26993 -0.741605,0.26993 -0.907362,0 -5.536876,-0.50164 -5.892785,-0.63853 -0.270304,-0.10395 -0.318892,-0.2204 -0.318892,-0.76427 0,-0.35289 -0.06378,-0.64162 -0.141729,-0.64162 -0.07795,0 -0.14173,0.30702 -0.14173,0.68227 0,0.60374 0.04077,0.699 0.354324,0.82781 0.36239,0.14885 0.496797,0.54458 0.177162,0.52161 -0.09744,-0.007 -0.467156,-0.1278 -0.821593,-0.26845 z"
       id="path4616"
       inkscape:connector-curvature="0" />
    <path
       style="fill:#917c6f;stroke-width:0;stroke-miterlimit:4;stroke-dasharray:none"
       d="m 120.94109,222.77364 c -2.49774,-0.54734 -5.30342,-2.5071 -6.23297,-4.35372 -0.40178,-0.79815 -0.89024,-1.24387 -2.16132,-1.97214 l -0.92986,-0.53278 -2.72305,0.0136 c -2.47741,0.0123 -5.48855,0.23861 -8.23102,0.61847 l -0.65382,0.0906 -2.087551,-1.67357 -2.087544,-1.67357 0.847067,-0.26983 c 1.850958,-0.58961 3.766608,-1.68267 5.196388,-2.96502 0.37352,-0.335 0.72514,-0.58065 0.78138,-0.5459 0.0563,0.0348 0.1371,0.53119 0.17967,1.10315 0.0425,0.57197 0.13661,1.45284 0.20898,1.9575 l 0.13159,0.91756 h 3.17531 c 1.87283,0 3.30565,-0.0496 3.49308,-0.12082 0.65435,-0.24879 1.93047,-0.35424 2.80548,-0.23182 1.00711,0.14088 1.65501,0.33941 3.10783,0.95226 2.66587,1.12456 6.22326,1.53208 10.1335,1.16085 2.03947,-0.19363 3.44759,0.12818 4.34015,0.99187 0.46926,0.4541 0.50562,0.65801 0.0592,0.33201 -0.35377,-0.25834 -1.48022,-0.4389 -1.97045,-0.31586 -0.25853,0.0649 -0.2924,0.12453 -0.23468,0.41318 0.0821,0.41051 -0.18184,0.96055 -0.63396,1.32115 -0.31638,0.25233 -0.39478,0.25919 -2.22225,0.19444 -2.04712,-0.0725 -7.25502,-0.70778 -8.89609,-1.08516 -0.15048,-0.0346 -0.57659,-0.51428 -1.04951,-1.18144 -0.77224,-1.08943 -1.70027,-2.07549 -1.95335,-2.07549 -0.0682,0 0.1874,0.30635 0.56808,0.68077 0.38067,0.37442 0.97048,1.0788 1.31069,1.56529 0.54501,0.77936 0.59329,0.89451 0.40602,0.96843 -0.19268,0.0761 -0.19032,0.0847 0.0251,0.0922 0.13074,0.004 0.53031,0.30894 0.88796,0.67638 1.40698,1.44549 3.96464,2.64624 6.80673,3.19554 0.89554,0.17308 1.12693,0.26664 1.45032,0.5864 0.28702,0.28381 0.38479,0.4848 0.38479,0.79111 v 0.41064 l -0.5172,-0.5172 c -0.64409,-0.64408 -1.14032,-0.71832 -1.14032,-0.1706 0,0.78216 -0.91809,1.01452 -2.57443,0.65156 z"
       id="path4618"
       inkscape:connector-curvature="0" />
    <path
       style="fill:#917c6f;stroke-width:0;stroke-miterlimit:4;stroke-dasharray:none"
       d="m 108.8861,221.19312 c -0.54778,-0.57169 -0.84204,-1.37662 -0.71488,-1.95553 0.0878,-0.39992 0.75752,-1.48197 1.57576,-2.54608 0.52491,-0.68261 0.54031,-0.6921 1.00495,-0.6178 0.25954,0.0415 0.57403,0.13013 0.69888,0.19695 0.21536,0.11526 0.20633,0.14998 -0.17622,0.677 -0.6228,0.858 -0.71429,1.09116 -0.74173,1.89023 -0.0283,0.8236 -0.24862,1.27581 -0.70643,1.44988 -0.16553,0.063 -0.28979,0.20555 -0.28979,0.33261 0,0.24604 0.50544,0.84898 0.71169,0.84898 0.0721,0 0.0981,0.0533 0.0579,0.11839 -0.0402,0.0651 -0.26563,0.11839 -0.50086,0.11839 -0.34989,0 -0.5171,-0.0933 -0.91924,-0.51302 z"
       id="path4620"
       inkscape:connector-curvature="0" />
    <path
       style="fill:#917c6f;stroke-width:0;stroke-miterlimit:4;stroke-dasharray:none"
       d="m 29.320813,207.00936 c -0.579327,-0.0933 -1.079767,-0.19613 -1.112088,-0.22845 -0.07719,-0.0772 -0.672595,0.11231 7.240515,-2.30445 3.833174,-1.1707 6.998728,-2.15786 7.034564,-2.1937 0.176024,-0.17603 -0.142365,-0.13592 -1.335835,0.16826 -1.249905,0.31857 -6.074245,1.25949 -9.175519,1.78955 -0.989684,0.16916 -1.734846,0.2317 -2.249482,0.18881 -0.891972,-0.0743 -2.622259,-0.41417 -2.753719,-0.54085 -0.07311,-0.0704 13.454252,-4.12678 23.235847,-6.96755 1.847721,-0.53661 2.251495,-0.69526 2.581651,-1.01436 0.982943,-0.95004 2.011023,-7.21315 4.230407,-14.82231 2.996339,-10.27295 3.0777,-9.84828 4.464356,-12.84573 0.784482,-1.69577 4.796533,-7.84191 5.942822,-9.40067 2.745204,-3.73302 8.809701,-5.9027 13.475051,-7.47929 l 1.155033,-0.39033 5.574198,6.0007 5.57419,6.00069 -2.585442,2.54565 c -2.808966,2.76574 -5.686272,5.43519 -8.567149,7.94828 -2.460677,2.14653 -4.085972,4.058 -6.19233,7.28263 -1.645039,2.51839 -2.996509,4.89959 -4.727559,8.32965 -1.235673,2.44848 -1.613806,3.05104 -1.808088,3.11059 -0.142092,0.0436 -1.204159,0.46638 -2.246024,0.6653 -2.359488,0.45049 -2.951405,0.62577 -3.616367,1.0709 -0.809125,0.54165 -1.120004,1.08528 -1.116373,1.95218 0.0037,0.88547 0.444257,1.77586 1.420586,2.87116 0.543043,0.60922 0.617039,0.74235 0.442937,0.79687 -0.114963,0.036 -5.190441,1.50668 -11.278842,3.26816 -9.966049,2.88335 -11.359044,3.25727 -13.970469,3.75013 -2.87119,0.54188 -2.929504,0.54779 -5.742099,0.58266 -2.048388,0.0254 -3.135438,-0.0121 -3.894772,-0.13448 z"
       id="path4624"
       inkscape:connector-curvature="0"
       sodipodi:nodetypes="ccsccscccssssccccsssscsccccsccc" />
    <path
       style="fill:#784421;stroke:#000000;stroke-width:0;stroke-linecap:butt;stroke-linejoin:miter;stroke-miterlimit:4;stroke-dasharray:none;stroke-opacity:1"
       d="m 93.370244,162.80225 c 0,0 11.075616,10.73186 2.344079,20.25952 -8.731547,9.52765 -18.20305,9.17247 -18.20305,9.17247 0,0 2.486266,-0.71035 -0.355182,-3.19662 -2.841451,-2.48628 -0.473575,-3.907 -0.473575,-3.907 l -2.58435,-1.99238 c 3.845833,-9.66753 13.477594,-14.76714 19.272078,-20.33599"
       id="path4630"
       inkscape:connector-curvature="0"
       sodipodi:nodetypes="cscsccc" />
    <path
       style="fill:#28170b;stroke-width:0;stroke-miterlimit:4;stroke-dasharray:none"
       d=""
       id="path4636"
       inkscape:connector-curvature="0"
       transform="scale(0.26458333)" />
    <path
       style="fill:#917c6f;fill-opacity:1;stroke-width:0;stroke-miterlimit:4;stroke-dasharray:none"
       d="m 71.089691,190.63645 c 1.757765,-1.5406 3.584491,-4.29577 5.592825,-5.50583 -0.431348,0.84963 -0.904482,1.75044 -0.537299,2.48472 0.239878,0.45978 0.503438,0.78478 1.126771,1.38945 0.604619,0.59801 1.296282,1.34542 1.298013,2.07717 0,0.3216 -0.2177,0.66231 -0.333177,0.83218 -4.694047,3.30686 -8.687567,7.32237 -13.733156,7.6402 -1.803167,-2.97912 4.601367,-7.2232 6.586023,-8.91789 z"
       id="path4648"
       inkscape:connector-curvature="0"
       sodipodi:nodetypes="cccccccc" />
    <path
       style="fill:#deaa87;stroke:#000000;stroke-width:0;stroke-linecap:butt;stroke-linejoin:miter;stroke-miterlimit:4;stroke-dasharray:none;stroke-opacity:1"
       d="m 120.76409,177.31289 c 0,0 -3.85099,11.72039 -4.01842,15.73881 -0.16743,4.01842 -14.36424,20.38543 -21.246587,20.23876 0,0 -8.79246,3.84997 -31.278178,-5.85031 0,0 -1.753439,3.84826 -22.542353,-1.50283 l 22.708283,-6.92394 c 0,0 4.446766,1.02626 13.124438,-7.114 0,0 9.394386,0.009 18.03561,-9.00504 0,0 21.198787,-0.13983 25.217207,-5.58145 z"
       id="path37"
       inkscape:connector-curvature="0" />
    <g
       id="g858"
       transform="matrix(0.31641093,0,0,0.31641093,57.808861,109.79344)">
      <path
         sodipodi:nodetypes="ccscccccccccc"
         inkscape:connector-curvature="0"
         id="path844"
         d="m 111.86069,168.06068 c 0,0 -20.346372,-13.22003 -35.233899,-37.92975 0,0 7.563113,-3.38161 5.692226,-15.35528 -1.870886,-11.97368 11.786586,-34.237242 23.760263,-37.791926 0,0 -10.775999,8.995801 -12.080762,13.784073 0,0 40.145232,-20.251132 52.316062,-18.266757 0,0 21.51815,-3.029983 22.77893,-3.018633 1.47127,-0.01204 -17.02424,3.018632 -17.02424,3.018632 -12.45186,7.199638 -24.66841,11.686616 -38.1,16.338022 l -4.56406,6.548436 c 0,0 16.00729,15.742723 20.96823,16.404183 0,0 1.33909,8.1599 13.76642,10.23151 0,0 -8.32629,32.98567 -32.27917,46.03749 z"
         style="fill:#deaa87;fill-opacity:1;stroke:#000000;stroke-width:0;stroke-linecap:butt;stroke-linejoin:miter;stroke-miterlimit:4;stroke-dasharray:none;stroke-opacity:1" />
      <path
         sodipodi:nodetypes="cccccccccccccc"
         inkscape:connector-curvature="0"
         id="path854"
         d="m 167.5291,100.92887 c -0.42834,-0.35318 -0.74784,-1.03437 -1.08043,-1.328817 -7.72474,1.217937 -15.41626,0.295006 -20.75957,-2.09949 -0.67316,-0.3182 -0.71169,-0.34708 -0.67715,-0.50766 0.1523,-0.70809 0.2261,-6.974958 0.10006,-8.496352 -0.34655,-1.539162 0.0792,-3.539208 -1.85106,-2.593539 7.80701,-6.759545 18.13671,-8.863595 26.68984,-11.716533 -1.23113,-1.469964 -2.25151,-2.573164 -3.63148,-4.112059 0.68036,-0.225765 2.17043,-0.428807 2.76092,-0.521793 7.62257,4.645555 9.03566,14.363576 8.84109,21.275649 -3.5539,0.499117 -11.81019,0.309637 -13.29531,1.930043 2.58848,1.933612 3.89188,1.285014 6.91477,5.486394 0.74586,0.9327 2.07948,2.934047 2.00487,3.008657 -2.30355,-0.96356 -4.30555,-1.20569 -6.01655,-0.3245 z"
         style="fill:#deaa87;fill-opacity:1;stroke-width:0;stroke-miterlimit:4;stroke-dasharray:none" />
    </g>
    <path
       style="fill:#28170b;stroke:#000000;stroke-width:0;stroke-linecap:butt;stroke-linejoin:miter;stroke-miterlimit:4;stroke-dasharray:none;stroke-opacity:1"
       d="m 114.10512,138.5325 c 0,0 -3.84752,-0.0643 -4.2661,0.62635 0,0 0.7953,0.56509 1.04645,0.58601 0.25116,0.0209 1.72314,2.02997 1.72314,2.02997 0,0 1.10153,1.4576 5.88426,1.26258 l 0.89996,0.25116 c 0,0 -1.02161,-4.50339 -5.28771,-4.75607 z"
       id="path860"
       inkscape:connector-curvature="0"
       sodipodi:nodetypes="ccccccc" />
    <g
       id="g1296"
       transform="matrix(0.31641093,0,0,0.31641093,57.808861,109.79344)">
      <path
         sodipodi:nodetypes="csccc"
         inkscape:connector-curvature="0"
         id="path862"
         d="m 177.92132,90.828276 c 0,0 0.32815,-8.98973 -5.39726,-14.418671 0,0 5.00742,7.467564 3.26406,14.413918 0.74971,0.03753 2.1332,0.0048 2.1332,0.0048 z"
         style="fill:#784421;fill-opacity:1;stroke:#000000;stroke-width:0;stroke-linecap:butt;stroke-linejoin:miter;stroke-miterlimit:4;stroke-dasharray:none;stroke-opacity:1" />
      <path
         sodipodi:nodetypes="cccc"
         inkscape:connector-curvature="0"
         id="path864"
         d="m 172.49575,91.015375 1.91766,-0.140317 c 0,0 -1.38574,-10.43684 -7.79077,-14.757307 4.73063,5.730279 5.87311,14.897624 5.87311,14.897624 z"
         style="fill:#784421;fill-opacity:1;stroke:#784421;stroke-width:0;stroke-linecap:butt;stroke-linejoin:miter;stroke-miterlimit:4;stroke-dasharray:none;stroke-opacity:1" />
      <path
         sodipodi:nodetypes="cccc"
         inkscape:connector-curvature="0"
         id="path868"
         d="m 170.57809,91.155691 c 0,0 -4.10379,-10.509063 -9.95558,-12.771555 0,0 5.57919,4.952579 7.89761,12.911872 z"
         style="fill:#784421;fill-opacity:1;stroke:#000000;stroke-width:0;stroke-linecap:butt;stroke-linejoin:miter;stroke-miterlimit:4;stroke-dasharray:none;stroke-opacity:1" />
      <path
         sodipodi:nodetypes="cccc"
         inkscape:connector-curvature="0"
         id="path870"
         d="m 166.32183,91.810501 c 0,0 -4.85215,-8.838564 -12.12041,-11.057034 0,0 6.6255,3.405421 10.42459,12.004852 z"
         style="fill:#784421;fill-opacity:1;stroke:#000000;stroke-width:0;stroke-linecap:butt;stroke-linejoin:miter;stroke-miterlimit:4;stroke-dasharray:none;stroke-opacity:1" />
    </g>
    <g
       id="g1016"
       transform="matrix(0.36871537,-0.05890528,0.06501447,0.33406844,44.724343,117.35122)">
      <ellipse
         transform="matrix(0.91509283,0.40324324,-0.28789981,0.95766053,0,0)"
         ry="4.9626851"
         rx="6.8051734"
         cy="20.031176"
         cx="172.25348"
         id="path1010"
         style="fill:#ffffff;fill-opacity:1;stroke:#784421;stroke-width:0;stroke-miterlimit:4;stroke-dasharray:none;stroke-opacity:1" />
      <ellipse
         transform="matrix(0.86759761,0.49726692,-0.50273807,0.8644388,0,0)"
         ry="4.0108314"
         rx="5.1066146"
         cy="1.3606369"
         cx="175.84496"
         id="path1012"
         style="fill:#000000;fill-opacity:1;stroke:#784421;stroke-width:0;stroke-miterlimit:4;stroke-dasharray:none;stroke-opacity:1" />
    </g>
    <path
       style="fill:#000000;fill-opacity:1;stroke:#784421;stroke-width:0;stroke-miterlimit:4;stroke-dasharray:none;stroke-opacity:1"
       d=""
       id="path1020"
       inkscape:connector-curvature="0"
       transform="scale(0.26458333)" />
    <path
       style="fill:#000000;fill-opacity:1;stroke:#784421;stroke-width:0;stroke-miterlimit:4;stroke-dasharray:none;stroke-opacity:1"
       d=""
       id="path1022"
       inkscape:connector-curvature="0"
       transform="scale(0.26458333)" />
    <path
       style="fill:#28170b;fill-opacity:1;stroke:#784421;stroke-width:0;stroke-miterlimit:4;stroke-dasharray:none;stroke-opacity:1"
       d="m 67.532974,183.75915 c 1.122341,-2.25773 3.297495,-4.77895 5.398776,-6.25771 0.636117,-0.44767 0.691622,-0.46327 0.857679,-0.24108 0.09765,0.13064 0.455962,0.60564 0.796248,1.05551 l 0.618698,0.81797 -1.079431,0.57553 c -2.421998,1.29135 -5.161839,3.07651 -6.288436,4.09726 l -0.595232,0.53931 z"
       id="path1024-1"
       inkscape:connector-curvature="0" />
    <g
       id="g1266"
       transform="matrix(0.31641093,0,0,0.31641093,57.808861,109.79344)">
      <path
         inkscape:connector-curvature="0"
         id="path4632"
         d="m 21.158582,283.68457 c 0,0 -28.7389643,-20.5676 18.509842,-23.44706 -25.816358,13.98597 -18.509842,23.44706 -18.509842,23.44706 z"
         style="fill:#28170b;stroke:#000000;stroke-width:0;stroke-linecap:butt;stroke-linejoin:miter;stroke-miterlimit:4;stroke-dasharray:none;stroke-opacity:1" />
      <path
         sodipodi:nodetypes="cccccsc"
         inkscape:connector-curvature="0"
         id="path4638"
         d="m 35.451966,260.39884 c 7.406113,-7.83125 8.107626,-25.56479 16.029518,-28.59649 0.128069,0.0337 3.276945,2.34695 5.095359,3.69774 l 3.072342,2.59907 -0.56964,0.32612 c -2.069275,1.69316 -6.107754,14.33309 -18.351799,19.67277 z"
         style="fill:#28170b;stroke-width:0;stroke-miterlimit:4;stroke-dasharray:none" />
      <path
         inkscape:connector-curvature="0"
         id="path1024"
         d="m 53.894644,190.60216 c 3.5471,-7.13544 10.42156,-15.10362 17.062548,-19.77718 2.010413,-1.41482 2.185832,-1.46413 2.710647,-0.76192 0.308624,0.41292 1.441043,1.9141 2.516498,3.33591 l 1.955365,2.58513 -3.411487,1.81893 c -7.654594,4.08128 -16.313717,9.72318 -19.874269,12.94919 l -1.881199,1.70446 z"
         style="fill:#28170b;fill-opacity:1;stroke:#784421;stroke-width:0;stroke-miterlimit:4;stroke-dasharray:none;stroke-opacity:1" />
      <path
         inkscape:connector-curvature="0"
         id="path1024-3"
         d="m 60.692378,166.37802 c 3.5471,-7.13544 10.42156,-15.10362 17.062548,-19.77718 2.010412,-1.41482 2.185832,-1.46413 2.710647,-0.76192 0.308624,0.41292 1.441043,1.9141 2.516498,3.33591 l 1.955365,2.58513 -3.411487,1.81893 c -7.654594,4.08128 -16.313717,9.72318 -19.874269,12.94919 l -1.881199,1.70446 z"
         style="fill:#28170b;fill-opacity:1;stroke:#784421;stroke-width:0;stroke-miterlimit:4;stroke-dasharray:none;stroke-opacity:1" />
      <path
         inkscape:connector-curvature="0"
         id="path1024-34"
         d="m 30.100502,218.29299 c 3.5471,-7.13544 10.42156,-15.10362 17.062548,-19.77718 2.010412,-1.41482 2.185832,-1.46413 2.710647,-0.76192 0.308624,0.41292 1.441043,1.9141 2.516498,3.33591 l 1.955365,2.58513 -3.411487,1.81893 c -7.654594,4.08128 -16.313717,9.72318 -19.874269,12.94919 l -1.881199,1.70446 z"
         style="fill:#28170b;fill-opacity:1;stroke:#784421;stroke-width:0;stroke-miterlimit:4;stroke-dasharray:none;stroke-opacity:1" />
      <path
         inkscape:connector-curvature="0"
         id="path1024-8"
         d="m 3.1121064,256.30785 c 0.89272,-7.9183 4.627319,-17.75715 9.2693546,-24.42021 1.405273,-2.0171 1.55325,-2.12343 2.286583,-1.64307 0.431241,0.28247 2.008798,1.3058 3.505683,2.27404 l 2.721607,1.76045 -2.583635,2.87604 c -5.797087,6.45317 -12.0043566,14.71642 -14.2468196,18.96566 l -1.1847911,2.24507 z"
         style="fill:#28170b;fill-opacity:1;stroke:#784421;stroke-width:0;stroke-miterlimit:4;stroke-dasharray:none;stroke-opacity:1" />
      <path
         inkscape:connector-curvature="0"
         id="path1024-81"
         d="m 2.313314,231.07937 c 0.89272,-7.9183 4.627319,-17.75715 9.269355,-24.42021 1.405273,-2.0171 1.55325,-2.12343 2.286583,-1.64307 0.431241,0.28247 2.008798,1.3058 3.505684,2.27404 l 2.721607,1.76045 -2.583635,2.87604 C 11.71582,218.37979 5.50855,226.64304 3.266087,230.89228 l -1.184791,2.24507 z"
         style="fill:#28170b;fill-opacity:1;stroke:#784421;stroke-width:0;stroke-miterlimit:4;stroke-dasharray:none;stroke-opacity:1" />
      <path
         inkscape:connector-curvature="0"
         id="path1024-2"
         d="m 82.242106,184.79364 c 3.5471,-7.13544 10.42156,-15.10362 17.062548,-19.77718 2.010416,-1.41482 2.185836,-1.46413 2.710646,-0.76192 0.30863,0.41292 1.44104,1.9141 2.5165,3.33591 l 1.95537,2.58513 -3.41149,1.81893 c -7.654597,4.08128 -16.31372,9.72318 -19.874272,12.94919 l -1.881199,1.70446 z"
         style="fill:#28170b;fill-opacity:1;stroke:#784421;stroke-width:0;stroke-miterlimit:4;stroke-dasharray:none;stroke-opacity:1" />
      <path
         inkscape:connector-curvature="0"
         id="path1024-9"
         d="m 41.779224,170.6895 c 2.254156,-7.64297 7.640515,-16.68385 13.369058,-22.4396 1.734188,-1.74244 1.898382,-1.82145 2.53716,-1.22105 0.375638,0.35307 1.751529,1.63478 3.057542,2.84825 l 2.37456,2.2063 -3.043802,2.3837 c -6.829599,5.34849 -14.377464,12.40832 -17.323734,16.20361 l -1.556643,2.00522 z"
         style="fill:#28170b;fill-opacity:1;stroke:#784421;stroke-width:0;stroke-miterlimit:4;stroke-dasharray:none;stroke-opacity:1" />
      <path
         inkscape:connector-curvature="0"
         id="path1024-91"
         d="m 21.028886,201.05472 c 0.89272,-7.9183 4.627319,-17.75715 9.269355,-24.42021 1.405273,-2.0171 1.55325,-2.12343 2.286583,-1.64307 0.431241,0.28247 2.008798,1.3058 3.505684,2.27404 l 2.721607,1.76045 -2.583635,2.87604 c -5.797088,6.45317 -12.004358,14.71642 -14.246821,18.96566 l -1.184791,2.24507 z"
         style="fill:#28170b;fill-opacity:1;stroke:#784421;stroke-width:0;stroke-miterlimit:4;stroke-dasharray:none;stroke-opacity:1" />
    </g>
    <g
       id="g1283"
       transform="matrix(0.31641093,0,0,0.31641093,57.808861,109.79344)">
      <path
         inkscape:connector-curvature="0"
         id="path1085"
         d="m 141.74583,138.37555 c 2.72547,-7.6867 3.7342,-13.191 2.81478,-15.35986 l -0.42075,-0.9925 2.90759,0.77988 c 1.59918,0.42894 2.96511,0.90323 3.03541,1.05394 0.0703,0.15074 -2.19882,4.66936 -5.04248,10.04136 l -5.1703,9.76729 z"
         style="fill:#28170b;fill-opacity:1;stroke:#784421;stroke-width:0;stroke-miterlimit:4;stroke-dasharray:none;stroke-opacity:1" />
      <path
         inkscape:connector-curvature="0"
         id="path1085-9"
         d="m 148.87165,149.30551 c 2.72547,-7.68671 3.7342,-13.19101 2.81478,-15.35987 l -0.42075,-0.9925 2.90759,0.77988 c 1.59918,0.42894 2.96511,0.90323 3.03541,1.05394 0.0703,0.15074 -2.19882,4.66936 -5.04248,10.04137 l -5.1703,9.76729 z"
         style="fill:#28170b;fill-opacity:1;stroke:#784421;stroke-width:0;stroke-miterlimit:4;stroke-dasharray:none;stroke-opacity:1" />
      <path
         inkscape:connector-curvature="0"
         id="path1085-95"
         d="m 130.1497,163.39509 c 5.19011,-6.29097 8.02059,-11.11832 7.89841,-13.47084 l -0.0559,-1.07655 2.46551,1.7273 c 1.35603,0.95003 2.47737,1.86289 2.49188,2.02855 0.0145,0.1657 -3.66323,3.63573 -8.17273,7.71117 l -8.1991,7.4099 z"
         style="fill:#28170b;fill-opacity:1;stroke:#784421;stroke-width:0;stroke-miterlimit:4;stroke-dasharray:none;stroke-opacity:1" />
      <path
         inkscape:connector-curvature="0"
         id="path1085-95-5"
         d="m 170.59192,144.00627 c -1.48302,-8.01961 -3.36158,-13.29084 -5.24226,-14.70942 l -0.86063,-0.64915 2.90799,-0.7784 c 1.5994,-0.42812 3.01949,-0.70034 3.15572,-0.60497 0.13625,0.0954 0.43044,5.14319 0.65376,11.21731 l 0.40603,11.04387 z"
         style="fill:#28170b;fill-opacity:1;stroke:#784421;stroke-width:0;stroke-miterlimit:4;stroke-dasharray:none;stroke-opacity:1" />
      <path
         inkscape:connector-curvature="0"
         id="path1085-95-2"
         d="m 153.76921,170.19963 c 2.72547,-7.6867 3.7342,-13.191 2.81478,-15.35986 l -0.42075,-0.9925 2.90759,0.77988 c 1.59918,0.42894 2.96511,0.90323 3.03541,1.05394 0.0703,0.15074 -2.19882,4.66936 -5.04248,10.04136 l -5.1703,9.76729 z"
         style="fill:#28170b;fill-opacity:1;stroke:#784421;stroke-width:0;stroke-miterlimit:4;stroke-dasharray:none;stroke-opacity:1" />
      <path
         inkscape:connector-curvature="0"
         id="path1085-95-3"
         d="m 188.89183,145.37924 c -2.85309,-7.64025 -5.61846,-12.50519 -7.71689,-13.57564 l -0.96027,-0.48987 2.72864,-1.27154 c 1.50077,-0.69934 2.852,-1.21402 3.00272,-1.14376 0.15075,0.0703 1.31702,4.99032 2.5917,10.93338 l 2.31761,10.80558 z"
         style="fill:#28170b;fill-opacity:1;stroke:#784421;stroke-width:0;stroke-miterlimit:4;stroke-dasharray:none;stroke-opacity:1" />
      <path
         inkscape:connector-curvature="0"
         id="path1085-95-4"
         d="m 131.92855,180.25296 c 5.19011,-6.29097 8.02059,-11.11832 7.89841,-13.47083 l -0.0559,-1.07656 2.4655,1.7273 c 1.35603,0.95003 2.47737,1.86289 2.49189,2.02856 0.0145,0.16569 -3.66323,3.63572 -8.17273,7.71116 l -8.1991,7.40991 z"
         style="fill:#28170b;fill-opacity:1;stroke:#784421;stroke-width:0;stroke-miterlimit:4;stroke-dasharray:none;stroke-opacity:1" />
      <path
         inkscape:connector-curvature="0"
         id="path1085-95-55"
         d="m 137.45924,202.99995 c 2.72547,-7.6867 3.7342,-13.191 2.81478,-15.35986 l -0.42075,-0.9925 2.90759,0.77988 c 1.59918,0.42894 2.96511,0.90323 3.03541,1.05394 0.0703,0.15074 -2.19882,4.66936 -5.04248,10.04136 l -5.1703,9.76729 z"
         style="fill:#28170b;fill-opacity:1;stroke:#784421;stroke-width:0;stroke-miterlimit:4;stroke-dasharray:none;stroke-opacity:1" />
      <path
         inkscape:connector-curvature="0"
         id="path1085-95-9"
         d="m 162.79033,190.75502 c 1.34929,-8.04319 1.38688,-13.63903 0.10481,-15.61529 l -0.58671,-0.90436 2.99885,0.26314 c 1.64937,0.14473 3.0769,0.37462 3.17231,0.51083 0.0954,0.13624 -1.35459,4.98024 -3.22221,10.76443 l -3.39568,10.51671 z"
         style="fill:#28170b;fill-opacity:1;stroke:#784421;stroke-width:0;stroke-miterlimit:4;stroke-dasharray:none;stroke-opacity:1" />
      <path
         inkscape:connector-curvature="0"
         id="path1085-95-0"
         d="m 177.94451,165.31097 c 1.34929,-8.04319 1.38688,-13.63903 0.10481,-15.61529 l -0.58671,-0.90436 2.99885,0.26314 c 1.64937,0.14473 3.0769,0.37462 3.17231,0.51083 0.0954,0.13624 -1.35459,4.98024 -3.22221,10.76443 l -3.39568,10.51671 z"
         style="fill:#28170b;fill-opacity:1;stroke:#784421;stroke-width:0;stroke-miterlimit:4;stroke-dasharray:none;stroke-opacity:1" />
      <path
         inkscape:connector-curvature="0"
         id="path1085-95-6"
         d="m 196.06942,171.49961 c -0.0679,-8.1553 -1.00258,-13.67266 -2.60835,-15.39626 l -0.73484,-0.78874 2.99899,-0.2616 c 1.64944,-0.14388 3.0952,-0.16537 3.21282,-0.0478 0.11761,0.1176 -0.4692,5.1398 -1.30404,11.16042 l -1.51788,10.9466 z"
         style="fill:#28170b;fill-opacity:1;stroke:#784421;stroke-width:0;stroke-miterlimit:4;stroke-dasharray:none;stroke-opacity:1" />
      <path
         inkscape:connector-curvature="0"
         id="path1085-95-1"
         d="m 181.42508,186.72324 c 2.72547,-7.6867 3.7342,-13.191 2.81478,-15.35986 l -0.42075,-0.9925 2.90759,0.77988 c 1.59918,0.42894 2.96511,0.90323 3.03541,1.05394 0.0703,0.15074 -2.19882,4.66936 -5.04248,10.04136 l -5.1703,9.76729 z"
         style="fill:#28170b;fill-opacity:1;stroke:#784421;stroke-width:0;stroke-miterlimit:4;stroke-dasharray:none;stroke-opacity:1" />
      <path
         inkscape:connector-curvature="0"
         id="path1085-95-29"
         d="m 167.20634,210.4835 c 2.72547,-7.6867 3.7342,-13.191 2.81478,-15.35986 l -0.42075,-0.9925 2.90759,0.77988 c 1.59918,0.42894 2.96511,0.90323 3.03541,1.05394 0.0703,0.15074 -2.19882,4.66936 -5.04248,10.04136 l -5.1703,9.76729 z"
         style="fill:#28170b;fill-opacity:1;stroke:#784421;stroke-width:0;stroke-miterlimit:4;stroke-dasharray:none;stroke-opacity:1" />
      <path
         inkscape:connector-curvature="0"
         id="path1085-95-30"
         d="m 188.16027,201.69034 c 2.72547,-7.6867 3.7342,-13.191 2.81478,-15.35986 l -0.42075,-0.9925 2.90759,0.77988 c 1.59918,0.42894 2.96511,0.90323 3.03541,1.05394 0.0703,0.15074 -2.19882,4.66936 -5.04248,10.04136 l -5.1703,9.76729 z"
         style="fill:#28170b;fill-opacity:1;stroke:#784421;stroke-width:0;stroke-miterlimit:4;stroke-dasharray:none;stroke-opacity:1" />
      <path
         inkscape:connector-curvature="0"
         id="path1085-95-7"
         d="m 147.74912,219.65084 c 2.72547,-7.6867 3.7342,-13.191 2.81478,-15.35986 l -0.42075,-0.9925 2.90759,0.77988 c 1.59918,0.42894 2.96511,0.90323 3.03541,1.05394 0.0703,0.15074 -2.19882,4.66936 -5.04248,10.04136 l -5.1703,9.76729 z"
         style="fill:#28170b;fill-opacity:1;stroke:#784421;stroke-width:0;stroke-miterlimit:4;stroke-dasharray:none;stroke-opacity:1" />
    </g>
    <g
       id="g1290"
       transform="matrix(0.31641093,0,0,0.31641093,57.808861,109.79344)">
      <path
         inkscape:connector-curvature="0"
         id="path1195"
         d="m 178.19733,231.31167 c 0,0 -6.36847,29.65299 -43.58354,42.4684 0,0 37.88887,0.60164 43.58354,-42.4684 z"
         style="fill:#784421;fill-opacity:1;stroke:#000000;stroke-width:0;stroke-linecap:butt;stroke-linejoin:miter;stroke-miterlimit:4;stroke-dasharray:none;stroke-opacity:1" />
      <path
         inkscape:connector-curvature="0"
         id="path1195-1"
         d="m 165.26477,271.65786 c 0,0 -11.42091,28.09662 -50.29597,34.25501 0,0 37.20878,7.17184 50.29597,-34.25501 z"
         style="fill:#784421;fill-opacity:1;stroke:#000000;stroke-width:0;stroke-linecap:butt;stroke-linejoin:miter;stroke-miterlimit:4;stroke-dasharray:none;stroke-opacity:1" />
      <path
         inkscape:connector-curvature="0"
         id="path1195-0"
         d="m 137.96475,240.17949 c 0,0 -6.36847,29.65299 -43.583535,42.4684 0,0 37.888865,0.60165 43.583535,-42.4684 z"
         style="fill:#784421;fill-opacity:1;stroke:#000000;stroke-width:0;stroke-linecap:butt;stroke-linejoin:miter;stroke-miterlimit:4;stroke-dasharray:none;stroke-opacity:1" />
      <path
         inkscape:connector-curvature="0"
         id="path1195-0-5"
         d="m 97.193287,262.17518 c 0,0 -16.126323,25.68655 -55.480179,25.00079 0,0 35.398116,13.52412 55.480179,-25.00079 z"
         style="fill:#784421;fill-opacity:1;stroke:#000000;stroke-width:0;stroke-linecap:butt;stroke-linejoin:miter;stroke-miterlimit:4;stroke-dasharray:none;stroke-opacity:1" />
      <path
         inkscape:connector-curvature="0"
         id="path1195-0-4"
         d="m 114.55657,285.32623 c 0,0 -16.126329,25.68655 -55.48018,25.00079 0,0 35.398111,13.52412 55.48018,-25.00079 z"
         style="fill:#784421;fill-opacity:1;stroke:#000000;stroke-width:0;stroke-linecap:butt;stroke-linejoin:miter;stroke-miterlimit:4;stroke-dasharray:none;stroke-opacity:1" />
    </g>
  </g>
</svg>
